# xmcd
#
# Track frame offsets:
#	150
#	15032
#	32102
#	46572
#	62445
#	74670
#	88547
#	101075
#	125420
#	144752
#	158367
#	177310
#	191885
#	208330
#	224250
#	239175
#	247322
#	259967
#	276357
#	288727
#
# Disc length: 4016 seconds
# Revision: 0
# Processed by: cddbd v1.5.2PL0 Copyright (c) Steve Scherf et al.
# Submitted via: dBpowerAMP V12.0
#
DISCID=320fae14
DTITLE=Various Artist - TM Century GoldDisc CX4
DYEAR=1989
DGENRE=Country Christmas
TTITLE0=Randy Travis - An Old Time Christmas
TTITLE1=K.T. Oslin - Blue Christmas
TTITLE2=George Strait - When It's Christmas Time In Texas
TTITLE3=Mark O'Connor - What Child Is This
TTITLE4=The McCarters - O Little Town Of Bethlehem
TTITLE5=Southern Pacific - Run Rudolph Run
TTITLE6=Dwight Yoakam - Santa Claus Is Back In Town
TTITLE7=Reba McEntire - The Christmas Guest
TTITLE8=The Oak Ridge Boys - There's A New Kid In Town
TTITLE9=The Judds - Silver Bells
TTITLE10=Alabama - Santa Claus (I Still Believe In You)
TTITLE11=Michael Johnson - This Time Of Year
TTITLE12=The A-Strings With Kathy Mattea - The Christmas Song
TTITLE13=Ronnie Milsap - It's Just Not Christmas (If I Can't Spend It With You)
TTITLE14=Kenny Rogers - Silent Night
TTITLE15=Baillie and The Boys - In A Manger
TTITLE16=Randy Travis - How Do I Wrap My Heart Up For Christmas
TTITLE17=Sawyer Brown - It Wasn't His Child
TTITLE18=Highway 101 - Blue Christmas
TTITLE19=Gary Morris - Every Christmas
EXTD=
EXTT0=
EXTT1=
EXTT2=
EXTT3=
EXTT4=
EXTT5=
EXTT6=
EXTT7=
EXTT8=
EXTT9=
EXTT10=
EXTT11=
EXTT12=
EXTT13=
EXTT14=
EXTT15=
EXTT16=
EXTT17=
EXTT18=
EXTT19=
PLAYORDER=
